<?xml version="1.0" encoding="UTF-8"?>
<svg xmlns="http://www.w3.org/2000/svg" width="1460" height="740" viewBox="0 0 1460 740">
  <rect width="100%" height="100%" fill="#fafafa"/>
  <text x="24" y="32" font-family="Helvetica,Arial,sans-serif" font-size="16" font-weight="bold" fill="#111">Fault tree 2 — after system-level mitigations M1 and M2</text>
  <text x="24" y="52" font-family="Helvetica,Arial,sans-serif" font-size="11" fill="#555">Top event = violation of REQ R-S02-1 (world). Intermediate events = ASM or SPEC failures. Circles: OR / AND gates.</text>
  <rect x="380" y="60" width="700" height="70" rx="8" ry="8" fill="#f8d0d0" stroke="#333" stroke-width="2"/><text x="730.0" y="88.0" text-anchor="middle" font-family="Helvetica,Arial,sans-serif" font-size="13" fill="#222"><tspan x="730.0" dy="0">TOP: Coordinating LE does not learn of a true in-view sighting</tspan><tspan x="730.0" dy="1.25em">while the child is still nearby  (R-S02-1) — after M1 and M2</tspan></text>
<line x1="730" y1="130" x2="730" y2="160" stroke="#333" stroke-width="1.4"/>
<circle cx="730" cy="178" r="18" fill="#e8eef7" stroke="#333" stroke-width="1.5"/><text x="730" y="182" text-anchor="middle" font-family="Helvetica,Arial,sans-serif" font-size="11" font-weight="bold">OR</text>
<line x1="730" y1="196" x2="150" y2="230" stroke="#333" stroke-width="1.4"/>
<rect x="20" y="230" width="260" height="56" rx="8" ry="8" fill="#ffe6c7" stroke="#333" stroke-width="1.5"/><text x="150.0" y="251.0" text-anchor="middle" font-family="Helvetica,Arial,sans-serif" font-size="11" fill="#222"><tspan x="150.0" dy="0">A. Never captured</tspan><tspan x="150.0" dy="1.25em">(unchanged physical ASMs)</tspan></text>
<line x1="150" y1="286" x2="150" y2="304" stroke="#333" stroke-width="1.4"/>
<line x1="730" y1="196" x2="440" y2="230" stroke="#333" stroke-width="1.4"/>
<rect x="310" y="230" width="260" height="56" rx="8" ry="8" fill="#d8f3dc" stroke="#333" stroke-width="1.5"/><text x="440.0" y="251.0" text-anchor="middle" font-family="Helvetica,Arial,sans-serif" font-size="11" fill="#222"><tspan x="440.0" dy="0">B*. No usable candidate</tspan><tspan x="440.0" dy="1.25em">reaches a human or a score</tspan></text>
<line x1="440" y1="286" x2="440" y2="304" stroke="#333" stroke-width="1.4"/>
<line x1="730" y1="196" x2="730" y2="230" stroke="#333" stroke-width="1.4"/>
<rect x="600" y="230" width="260" height="56" rx="8" ry="8" fill="#d8f3dc" stroke="#333" stroke-width="1.5"/><text x="730.0" y="251.0" text-anchor="middle" font-family="Helvetica,Arial,sans-serif" font-size="11" fill="#222"><tspan x="730.0" dy="0">C*. All delivery paths fail</tspan><tspan x="730.0" dy="1.25em">before the child leaves</tspan></text>
<line x1="730" y1="286" x2="730" y2="304" stroke="#333" stroke-width="1.4"/>
<line x1="730" y1="196" x2="1020" y2="230" stroke="#333" stroke-width="1.4"/>
<rect x="890" y="230" width="260" height="56" rx="8" ry="8" fill="#ffe6c7" stroke="#333" stroke-width="1.5"/><text x="1020.0" y="251.0" text-anchor="middle" font-family="Helvetica,Arial,sans-serif" font-size="11" fill="#222"><tspan x="1020.0" dy="0">D. Arrives but unused</tspan><tspan x="1020.0" dy="1.25em">(operator ASM remains)</tspan></text>
<line x1="1020" y1="286" x2="1020" y2="304" stroke="#333" stroke-width="1.4"/>
<line x1="730" y1="196" x2="1310" y2="230" stroke="#333" stroke-width="1.4"/>
<rect x="1180" y="230" width="260" height="56" rx="8" ry="8" fill="#fff3cd" stroke="#333" stroke-width="1.5"/><text x="1310.0" y="251.0" text-anchor="middle" font-family="Helvetica,Arial,sans-serif" font-size="11" fill="#222"><tspan x="1310.0" dy="0">E. New residual from M2</tspan><tspan x="1310.0" dy="1.25em">Reviewer never looks</tspan></text>
<line x1="1310" y1="286" x2="1310" y2="304" stroke="#333" stroke-width="1.4"/>
<circle cx="150" cy="322" r="18" fill="#e8eef7" stroke="#333" stroke-width="1.5"/><text x="150" y="326" text-anchor="middle" font-family="Helvetica,Arial,sans-serif" font-size="11" font-weight="bold">OR</text>
<rect x="20" y="360" width="260" height="70" rx="8" ry="8" fill="#fff8e7" stroke="#333" stroke-width="1.5"/><text x="150.0" y="388.0" text-anchor="middle" font-family="Helvetica,Arial,sans-serif" font-size="11" fill="#222"><tspan x="150.0" dy="0">A1 ASM-power/FOV</tspan><tspan x="150.0" dy="1.25em">(R-S02-1-A1)</tspan></text>
<rect x="20" y="445" width="260" height="70" rx="8" ry="8" fill="#fff8e7" stroke="#333" stroke-width="1.5"/><text x="150.0" y="473.0" text-anchor="middle" font-family="Helvetica,Arial,sans-serif" font-size="11" fill="#222"><tspan x="150.0" dy="0">A2 ASM-occlusion</tspan><tspan x="150.0" dy="1.25em">(R-S02-1-A2)</tspan></text>
<line x1="150" y1="340" x2="150" y2="360" stroke="#333" stroke-width="1.4"/>
<line x1="150" y1="340" x2="150" y2="445" stroke="#333" stroke-width="1.4"/>
<circle cx="440" cy="322" r="18" fill="#e8eef7" stroke="#333" stroke-width="1.5"/><text x="440" y="326" text-anchor="middle" font-family="Helvetica,Arial,sans-serif" font-size="11" font-weight="bold">AND</text>
<rect x="300" y="360" width="280" height="78" rx="8" ry="8" fill="#fde2e2" stroke="#333" stroke-width="2.2"/><text x="440.0" y="385.0" text-anchor="middle" font-family="Helvetica,Arial,sans-serif" font-size="11" fill="#222"><tspan x="440.0" dy="0">B2 SPEC-ML wrong prediction</tspan><tspan x="440.0" dy="1.25em">face score too low / wrong</tspan><tspan x="440.0" dy="1.25em">(R-S02-1-P2)  ★ still present</tspan></text>
<rect x="300" y="450" width="280" height="70" rx="8" ry="8" fill="#fff3cd" stroke="#333" stroke-width="1.5"/><text x="440.0" y="478.0" text-anchor="middle" font-family="Helvetica,Arial,sans-serif" font-size="11" fill="#222"><tspan x="440.0" dy="0">M2 residual: clothing/color cue</tspan><tspan x="440.0" dy="1.25em">also fails to keep the crop</tspan></text>
<rect x="300" y="532" width="280" height="78" rx="8" ry="8" fill="#fff8e7" stroke="#333" stroke-width="1.5"/><text x="440.0" y="557.0" text-anchor="middle" font-family="Helvetica,Arial,sans-serif" font-size="11" fill="#222"><tspan x="440.0" dy="0">AND (B1 SPEC-alert missing</tspan><tspan x="440.0" dy="1.25em">OR B3 ASM-photo stale)</tspan><tspan x="440.0" dy="1.25em">— still can starve matching</tspan></text>
<line x1="440" y1="340" x2="440" y2="360" stroke="#333" stroke-width="1.4"/>
<line x1="440" y1="340" x2="440" y2="450" stroke="#333" stroke-width="1.4"/>
<line x1="440" y1="340" x2="440" y2="532" stroke="#333" stroke-width="1.4"/>
<circle cx="730" cy="322" r="18" fill="#e8eef7" stroke="#333" stroke-width="1.5"/><text x="730" y="326" text-anchor="middle" font-family="Helvetica,Arial,sans-serif" font-size="11" font-weight="bold">AND</text>
<rect x="590" y="360" width="280" height="70" rx="8" ry="8" fill="#fff8e7" stroke="#333" stroke-width="1.5"/><text x="730.0" y="388.0" text-anchor="middle" font-family="Helvetica,Arial,sans-serif" font-size="11" fill="#222"><tspan x="730.0" dy="0">C1a Phone Bluetooth/cellular</tspan><tspan x="730.0" dy="1.25em">path fails in time</tspan></text>
<rect x="590" y="440" width="280" height="70" rx="8" ry="8" fill="#fff8e7" stroke="#333" stroke-width="1.5"/><text x="730.0" y="468.0" text-anchor="middle" font-family="Helvetica,Arial,sans-serif" font-size="11" fill="#222"><tspan x="730.0" dy="0">C1b Wi-Fi / USB home/work</tspan><tspan x="730.0" dy="1.25em">offload also fails</tspan></text>
<rect x="590" y="520" width="280" height="78" rx="8" ry="8" fill="#fff3cd" stroke="#333" stroke-width="1.5"/><text x="730.0" y="545.0" text-anchor="middle" font-family="Helvetica,Arial,sans-serif" font-size="11" fill="#222"><tspan x="730.0" dy="0">C1c No partner kiosk visit</tspan><tspan x="730.0" dy="1.25em">before child leaves area</tspan><tspan x="730.0" dy="1.25em">(M1 residual)</tspan></text>
<line x1="730" y1="340" x2="730" y2="360" stroke="#333" stroke-width="1.4"/>
<line x1="730" y1="340" x2="730" y2="440" stroke="#333" stroke-width="1.4"/>
<line x1="730" y1="340" x2="730" y2="520" stroke="#333" stroke-width="1.4"/>
<circle cx="1020" cy="322" r="18" fill="#e8eef7" stroke="#333" stroke-width="1.5"/><text x="1020" y="326" text-anchor="middle" font-family="Helvetica,Arial,sans-serif" font-size="11" font-weight="bold">OR</text>
<rect x="880" y="360" width="260" height="70" rx="8" ry="8" fill="#fff8e7" stroke="#333" stroke-width="1.5"/><text x="1010.0" y="388.0" text-anchor="middle" font-family="Helvetica,Arial,sans-serif" font-size="11" fill="#222"><tspan x="1010.0" dy="0">D1 SPEC-inbox drop</tspan><tspan x="1010.0" dy="1.25em">(R-S02-1-P5)</tspan></text>
<rect x="880" y="445" width="260" height="78" rx="8" ry="8" fill="#fff8e7" stroke="#333" stroke-width="1.5"/><text x="1010.0" y="470.0" text-anchor="middle" font-family="Helvetica,Arial,sans-serif" font-size="11" fill="#222"><tspan x="1010.0" dy="0">D2 ASM-operator ignore</tspan><tspan x="1010.0" dy="1.25em">(R-S02-1-A5) — M2 can</tspan><tspan x="1010.0" dy="1.25em">increase volume; still a risk</tspan></text>
<line x1="1020" y1="340" x2="1010" y2="360" stroke="#333" stroke-width="1.4"/>
<line x1="1020" y1="340" x2="1010" y2="445" stroke="#333" stroke-width="1.4"/>
<circle cx="1310" cy="322" r="18" fill="#e8eef7" stroke="#333" stroke-width="1.5"/><text x="1310" y="326" text-anchor="middle" font-family="Helvetica,Arial,sans-serif" font-size="11" font-weight="bold">OR</text>
<rect x="1170" y="360" width="270" height="70" rx="8" ry="8" fill="#fff3cd" stroke="#333" stroke-width="1.5"/><text x="1305.0" y="388.0" text-anchor="middle" font-family="Helvetica,Arial,sans-serif" font-size="11" fill="#222"><tspan x="1305.0" dy="0">E1 Reviewer shift empty</tspan><tspan x="1305.0" dy="1.25em">(volunteer ASM)</tspan></text>
<rect x="1170" y="445" width="270" height="78" rx="8" ry="8" fill="#fff3cd" stroke="#333" stroke-width="1.5"/><text x="1305.0" y="470.0" text-anchor="middle" font-family="Helvetica,Arial,sans-serif" font-size="11" fill="#222"><tspan x="1305.0" dy="0">E2 Top-k cap already full;</tspan><tspan x="1305.0" dy="1.25em">crop counted as overflow</tspan><tspan x="1305.0" dy="1.25em">not shown</tspan></text>
<line x1="1310" y1="340" x2="1305" y2="360" stroke="#333" stroke-width="1.4"/>
<line x1="1310" y1="340" x2="1305" y2="445" stroke="#333" stroke-width="1.4"/>
<rect x="20" y="640" width="1420" height="72" rx="8" ry="8" fill="#e8f5e9" stroke="#333" stroke-width="1.5"/><text x="730.0" y="662.0" text-anchor="middle" font-family="Helvetica,Arial,sans-serif" font-size="12" fill="#222"><tspan x="730.0" dy="0">M1 (system, not ML): delay-tolerant multi-path delivery (phone + Wi-Fi/USB + encrypted kiosk offload) + retro-match of retained loop after a late search-alert.</tspan><tspan x="730.0" dy="1.25em">M2 (system, not ML): top-k stills + clothing tags to a reviewer, independent of the face threshold — so B2 alone is no longer a cut set.</tspan><tspan x="730.0" dy="1.25em">Effect: former singleton cut sets {B2} and {C1} become larger AND-combinations. Residual risk moves to reviewer capacity (E) and kiosk routing (C1c).</tspan></text>
</svg>
